<mxfile host="app.diagrams.net" modified="2024-05-27T20:56:58.085Z" agent="Mozilla/5.0 (Windows NT 10.0; Win64; x64) AppleWebKit/537.36 (KHTML, like Gecko) Chrome/125.0.0.0 Safari/537.36" etag="DW54Rlmg0CuRnZYDRST7" version="24.4.0" type="github">
  <diagram name="Page-1" id="ZV0lGWBMHenQjhHHO0ye">
    <mxGraphModel dx="2518" dy="1301" grid="1" gridSize="10" guides="1" tooltips="1" connect="1" arrows="1" fold="1" page="0" pageScale="1" pageWidth="850" pageHeight="1100" math="0" shadow="0">
      <root>
        <mxCell id="0" />
        <mxCell id="1" parent="0" />
        <mxCell id="qGSFiZ5v5x-3pANplyqe-2" value="AWS Account" style="points=[[0,0],[0.25,0],[0.5,0],[0.75,0],[1,0],[1,0.25],[1,0.5],[1,0.75],[1,1],[0.75,1],[0.5,1],[0.25,1],[0,1],[0,0.75],[0,0.5],[0,0.25]];outlineConnect=0;gradientColor=none;html=1;whiteSpace=wrap;fontSize=12;fontStyle=0;container=1;pointerEvents=0;collapsible=0;recursiveResize=0;shape=mxgraph.aws4.group;grIcon=mxgraph.aws4.group_account;strokeColor=#CD2264;fillColor=none;verticalAlign=top;align=left;spacingLeft=30;fontColor=#CD2264;dashed=0;" parent="1" vertex="1">
          <mxGeometry x="-690" y="-430" width="850" height="550" as="geometry" />
        </mxCell>
        <mxCell id="LMjeuiblVrYPhw5DyJkM-31" value="" style="group" parent="qGSFiZ5v5x-3pANplyqe-2" vertex="1" connectable="0">
          <mxGeometry x="40" y="60" width="130" height="140" as="geometry" />
        </mxCell>
        <mxCell id="LMjeuiblVrYPhw5DyJkM-29" value="" style="outlineConnect=0;dashed=0;verticalLabelPosition=bottom;verticalAlign=top;align=center;html=1;shape=mxgraph.aws3.bucket_with_objects;fillColor=#E05243;gradientColor=none;" parent="LMjeuiblVrYPhw5DyJkM-31" vertex="1">
          <mxGeometry width="100" height="100" as="geometry" />
        </mxCell>
        <mxCell id="LMjeuiblVrYPhw5DyJkM-30" value="S3 Bucket" style="text;html=1;align=center;verticalAlign=middle;whiteSpace=wrap;rounded=0;fontSize=16;" parent="LMjeuiblVrYPhw5DyJkM-31" vertex="1">
          <mxGeometry x="-20" y="110" width="130" height="30" as="geometry" />
        </mxCell>
        <mxCell id="LMjeuiblVrYPhw5DyJkM-32" value="" style="group" parent="qGSFiZ5v5x-3pANplyqe-2" vertex="1" connectable="0">
          <mxGeometry x="560" y="60" width="150" height="120" as="geometry" />
        </mxCell>
        <mxCell id="LMjeuiblVrYPhw5DyJkM-25" value="" style="outlineConnect=0;dashed=0;verticalLabelPosition=bottom;verticalAlign=top;align=center;html=1;shape=mxgraph.aws3.ecr_registry;fillColor=#F58534;gradientColor=none;" parent="LMjeuiblVrYPhw5DyJkM-32" vertex="1">
          <mxGeometry width="150" height="90" as="geometry" />
        </mxCell>
        <mxCell id="LMjeuiblVrYPhw5DyJkM-26" value="ECR Registry" style="text;html=1;align=center;verticalAlign=middle;whiteSpace=wrap;rounded=0;fontSize=16;" parent="LMjeuiblVrYPhw5DyJkM-32" vertex="1">
          <mxGeometry y="90" width="120" height="30" as="geometry" />
        </mxCell>
        <mxCell id="LMjeuiblVrYPhw5DyJkM-33" value="" style="group" parent="qGSFiZ5v5x-3pANplyqe-2" vertex="1" connectable="0">
          <mxGeometry x="280" y="60" width="130" height="128" as="geometry" />
        </mxCell>
        <mxCell id="LMjeuiblVrYPhw5DyJkM-22" value="EC2 instance&amp;nbsp;" style="points=[[0,0],[0.25,0],[0.5,0],[0.75,0],[1,0],[1,0.25],[1,0.5],[1,0.75],[1,1],[0.75,1],[0.5,1],[0.25,1],[0,1],[0,0.75],[0,0.5],[0,0.25]];outlineConnect=0;gradientColor=none;html=1;whiteSpace=wrap;fontSize=12;fontStyle=0;container=1;pointerEvents=0;collapsible=0;recursiveResize=0;shape=mxgraph.aws4.group;grIcon=mxgraph.aws4.group_ec2_instance_contents;strokeColor=#D86613;fillColor=none;verticalAlign=top;align=left;spacingLeft=30;fontColor=#D86613;dashed=0;" parent="LMjeuiblVrYPhw5DyJkM-33" vertex="1">
          <mxGeometry width="130" height="90" as="geometry" />
        </mxCell>
        <mxCell id="LMjeuiblVrYPhw5DyJkM-23" value="" style="image;sketch=0;aspect=fixed;html=1;points=[];align=center;fontSize=12;image=img/lib/mscae/Docker.svg;" parent="LMjeuiblVrYPhw5DyJkM-22" vertex="1">
          <mxGeometry x="24.509999999999998" y="20" width="60.98" height="50" as="geometry" />
        </mxCell>
        <mxCell id="LMjeuiblVrYPhw5DyJkM-27" value="EC2 Build Server" style="text;html=1;align=center;verticalAlign=middle;whiteSpace=wrap;rounded=0;fontSize=16;" parent="LMjeuiblVrYPhw5DyJkM-33" vertex="1">
          <mxGeometry y="98" width="130" height="30" as="geometry" />
        </mxCell>
        <mxCell id="LMjeuiblVrYPhw5DyJkM-38" value="" style="rounded=0;whiteSpace=wrap;html=1;" parent="qGSFiZ5v5x-3pANplyqe-2" vertex="1">
          <mxGeometry x="400" y="320" width="360" height="136" as="geometry" />
        </mxCell>
        <mxCell id="LMjeuiblVrYPhw5DyJkM-39" value="" style="group" parent="qGSFiZ5v5x-3pANplyqe-2" vertex="1" connectable="0">
          <mxGeometry x="430" y="340.5" width="270" height="83" as="geometry" />
        </mxCell>
        <mxCell id="LMjeuiblVrYPhw5DyJkM-35" value="" style="aspect=fixed;sketch=0;html=1;dashed=0;whitespace=wrap;verticalLabelPosition=bottom;verticalAlign=top;fillColor=#2875E2;strokeColor=#ffffff;points=[[0.005,0.63,0],[0.1,0.2,0],[0.9,0.2,0],[0.5,0,0],[0.995,0.63,0],[0.72,0.99,0],[0.5,1,0],[0.28,0.99,0]];shape=mxgraph.kubernetes.icon2;kubernetesLabel=1;prIcon=node" parent="LMjeuiblVrYPhw5DyJkM-39" vertex="1">
          <mxGeometry width="65.21428571428572" height="62.60571428571429" as="geometry" />
        </mxCell>
        <mxCell id="LMjeuiblVrYPhw5DyJkM-37" value="" style="aspect=fixed;sketch=0;html=1;dashed=0;whitespace=wrap;verticalLabelPosition=bottom;verticalAlign=top;fillColor=#2875E2;strokeColor=#ffffff;points=[[0.005,0.63,0],[0.1,0.2,0],[0.9,0.2,0],[0.5,0,0],[0.995,0.63,0],[0.72,0.99,0],[0.5,1,0],[0.28,0.99,0]];shape=mxgraph.kubernetes.icon2;kubernetesLabel=1;prIcon=node" parent="LMjeuiblVrYPhw5DyJkM-39" vertex="1">
          <mxGeometry x="202.5" width="65.21428571428572" height="62.60571428571429" as="geometry" />
        </mxCell>
        <mxCell id="LMjeuiblVrYPhw5DyJkM-36" value="" style="aspect=fixed;sketch=0;html=1;dashed=0;whitespace=wrap;verticalLabelPosition=bottom;verticalAlign=top;fillColor=#2875E2;strokeColor=#ffffff;points=[[0.005,0.63,0],[0.1,0.2,0],[0.9,0.2,0],[0.5,0,0],[0.995,0.63,0],[0.72,0.99,0],[0.5,1,0],[0.28,0.99,0]];shape=mxgraph.kubernetes.icon2;kubernetesLabel=1;prIcon=node" parent="LMjeuiblVrYPhw5DyJkM-39" vertex="1">
          <mxGeometry x="108" width="65.21428571428572" height="62.60571428571429" as="geometry" />
        </mxCell>
        <mxCell id="-pBAPfDktvWxIzgxOiNx-5" value="EKS Cluster" style="text;html=1;align=center;verticalAlign=middle;whiteSpace=wrap;rounded=0;fontStyle=0" vertex="1" parent="qGSFiZ5v5x-3pANplyqe-2">
          <mxGeometry x="510" y="310" width="140" height="40" as="geometry" />
        </mxCell>
        <mxCell id="-pBAPfDktvWxIzgxOiNx-13" value="" style="endArrow=classic;html=1;rounded=0;entryX=1;entryY=0;entryDx=0;entryDy=0;" edge="1" parent="qGSFiZ5v5x-3pANplyqe-2">
          <mxGeometry relative="1" as="geometry">
            <mxPoint x="140" y="100" as="sourcePoint" />
            <mxPoint x="280" y="100" as="targetPoint" />
          </mxGeometry>
        </mxCell>
        <mxCell id="-pBAPfDktvWxIzgxOiNx-14" value="Push" style="edgeLabel;resizable=0;html=1;;align=center;verticalAlign=middle;" connectable="0" vertex="1" parent="-pBAPfDktvWxIzgxOiNx-13">
          <mxGeometry relative="1" as="geometry" />
        </mxCell>
        <mxCell id="-pBAPfDktvWxIzgxOiNx-15" value="" style="endArrow=classic;html=1;rounded=0;entryX=1;entryY=0;entryDx=0;entryDy=0;" edge="1" parent="qGSFiZ5v5x-3pANplyqe-2">
          <mxGeometry relative="1" as="geometry">
            <mxPoint x="410" y="100" as="sourcePoint" />
            <mxPoint x="550" y="100" as="targetPoint" />
          </mxGeometry>
        </mxCell>
        <mxCell id="-pBAPfDktvWxIzgxOiNx-16" value="Push to ECR" style="edgeLabel;resizable=0;html=1;;align=center;verticalAlign=middle;" connectable="0" vertex="1" parent="-pBAPfDktvWxIzgxOiNx-15">
          <mxGeometry relative="1" as="geometry" />
        </mxCell>
        <mxCell id="-pBAPfDktvWxIzgxOiNx-17" value="" style="endArrow=classic;html=1;rounded=0;exitX=0.5;exitY=1;exitDx=0;exitDy=0;" edge="1" parent="qGSFiZ5v5x-3pANplyqe-2" source="LMjeuiblVrYPhw5DyJkM-26" target="-pBAPfDktvWxIzgxOiNx-5">
          <mxGeometry relative="1" as="geometry">
            <mxPoint x="430" y="230.00000000000003" as="sourcePoint" />
            <mxPoint x="570" y="230.00000000000003" as="targetPoint" />
          </mxGeometry>
        </mxCell>
        <mxCell id="-pBAPfDktvWxIzgxOiNx-18" value="Deploy Application" style="edgeLabel;resizable=0;html=1;;align=center;verticalAlign=middle;" connectable="0" vertex="1" parent="-pBAPfDktvWxIzgxOiNx-17">
          <mxGeometry relative="1" as="geometry" />
        </mxCell>
        <mxCell id="LMjeuiblVrYPhw5DyJkM-17" value="" style="group" parent="1" vertex="1" connectable="0">
          <mxGeometry x="-1040" y="-440" width="210" height="210" as="geometry" />
        </mxCell>
        <mxCell id="LMjeuiblVrYPhw5DyJkM-13" value="" style="whiteSpace=wrap;html=1;aspect=fixed;" parent="LMjeuiblVrYPhw5DyJkM-17" vertex="1">
          <mxGeometry width="210" height="210" as="geometry" />
        </mxCell>
        <mxCell id="LMjeuiblVrYPhw5DyJkM-16" value="" style="group" parent="LMjeuiblVrYPhw5DyJkM-17" vertex="1" connectable="0">
          <mxGeometry x="36" width="128" height="168" as="geometry" />
        </mxCell>
        <mxCell id="LMjeuiblVrYPhw5DyJkM-14" value="fixpack.zip" style="text;html=1;align=center;verticalAlign=middle;whiteSpace=wrap;rounded=0;fontSize=16;" parent="LMjeuiblVrYPhw5DyJkM-16" vertex="1">
          <mxGeometry x="34" width="60" height="30" as="geometry" />
        </mxCell>
        <mxCell id="LMjeuiblVrYPhw5DyJkM-15" value="" style="shape=image;html=1;verticalAlign=top;verticalLabelPosition=bottom;labelBackgroundColor=#ffffff;imageAspect=0;aspect=fixed;image=https://cdn3.iconfinder.com/data/icons/UltimateGnome/128x128/mimetypes/application-x-java-archive.png" parent="LMjeuiblVrYPhw5DyJkM-16" vertex="1">
          <mxGeometry y="40" width="128" height="128" as="geometry" />
        </mxCell>
        <mxCell id="-pBAPfDktvWxIzgxOiNx-2" value="Fix Pack File recieved from TCS" style="text;html=1;align=center;verticalAlign=middle;whiteSpace=wrap;rounded=0;fontStyle=1" vertex="1" parent="1">
          <mxGeometry x="-1040" y="-230" width="190" height="40" as="geometry" />
        </mxCell>
        <mxCell id="-pBAPfDktvWxIzgxOiNx-11" value="" style="endArrow=classic;html=1;rounded=0;entryX=1;entryY=0;entryDx=0;entryDy=0;" edge="1" parent="1">
          <mxGeometry relative="1" as="geometry">
            <mxPoint x="-820" y="-335.59" as="sourcePoint" />
            <mxPoint x="-680" y="-335.59" as="targetPoint" />
          </mxGeometry>
        </mxCell>
        <mxCell id="-pBAPfDktvWxIzgxOiNx-12" value="Push" style="edgeLabel;resizable=0;html=1;;align=center;verticalAlign=middle;" connectable="0" vertex="1" parent="-pBAPfDktvWxIzgxOiNx-11">
          <mxGeometry relative="1" as="geometry" />
        </mxCell>
      </root>
    </mxGraphModel>
  </diagram>
</mxfile>
